<?xml version="1.0" encoding="iso-8859-1"?>
<!-- Generator: Adobe Illustrator 17.0.0, SVG Export Plug-In . SVG Version: 6.00 Build 0)  -->
<!DOCTYPE svg PUBLIC "-//W3C//DTD SVG 1.1//EN" "http://www.w3.org/Graphics/SVG/1.1/DTD/svg11.dtd">
<svg version="1.1" id="Layer_1" xmlns="http://www.w3.org/2000/svg" xmlns:xlink="http://www.w3.org/1999/xlink" x="0px" y="0px"
	 width="50px" height="50px" viewBox="0 0 50 50" style="enable-background:new 0 0 50 50;" xml:space="preserve">
<path style="fill:#919090;" d="M37.031,13.969c2.396,2.848,3.844,6.519,3.844,10.531c0,9.044-7.331,16.375-16.375,16.375
	c-4.013,0-7.684-1.448-10.531-3.844c3.004,3.57,7.5,5.844,12.531,5.844c9.044,0,16.375-7.331,16.375-16.375
	C42.875,21.469,40.602,16.973,37.031,13.969z"/>
<path style="fill:#D17213;stroke:#FFFFFF;stroke-width:3;stroke-miterlimit:10;" d="M36.031,12.969
	c-3.004-3.57-7.5-5.844-12.531-5.844c-9.044,0-16.375,7.331-16.375,16.375c0,5.031,2.273,9.527,5.844,12.531
	c2.848,2.396,6.519,3.844,10.531,3.844c9.044,0,16.375-7.331,16.375-16.375C39.875,19.487,38.427,15.816,36.031,12.969z"/>
<g>
	<g>
		<path style="fill:#FFFFFF;" d="M18.102,18.746c-0.682,1.155-0.654,2.318-0.281,3.575c0.38,1.279,1.853,3.23,0.648,4.398
			c-0.696,0.674,0.366,1.734,1.061,1.061c2.679-2.597-1.729-5.571-0.133-8.277C19.89,18.669,18.593,17.914,18.102,18.746
			L18.102,18.746z"/>
	</g>
</g>
<g>
	<g>
		<path style="fill:#FFFFFF;" d="M21.102,18.746c-0.682,1.155-0.654,2.318-0.281,3.575c0.38,1.279,1.853,3.23,0.648,4.398
			c-0.696,0.674,0.366,1.734,1.061,1.061c2.679-2.597-1.729-5.571-0.133-8.277C22.89,18.669,21.593,17.914,21.102,18.746
			L21.102,18.746z"/>
	</g>
</g>
<g>
	<g>
		<path style="fill:#FFFFFF;" d="M25.102,18.746c-0.682,1.155-0.654,2.318-0.281,3.575c0.38,1.279,1.853,3.23,0.648,4.398
			c-0.696,0.674,0.366,1.734,1.061,1.061c2.679-2.597-1.729-5.571-0.133-8.277C26.89,18.669,25.593,17.914,25.102,18.746
			L25.102,18.746z"/>
	</g>
</g>
<g>
	<g>
		<path style="fill:#FFFFFF;" d="M24.34,22.879c0.513-0.758,1.667,0.035,2.358,0.158c1.168,0.209,1.888-0.528,2.208-1.587
			c0.281-0.928-1.167-1.322-1.446-0.399c-0.129,0.428-0.188,0.588-0.626,0.485c-0.43-0.101-0.838-0.285-1.266-0.396
			c-1.047-0.271-1.926,0.099-2.523,0.981C22.5,22.925,23.801,23.674,24.34,22.879L24.34,22.879z"/>
	</g>
</g>
</svg>
